<?xml version="1.0" standalone="no"?>
<!DOCTYPE svg PUBLIC "-//W3C//DTD SVG 20010904//EN"
 "http://www.w3.org/TR/2001/REC-SVG-20010904/DTD/svg10.dtd">
<svg version="1.0" xmlns="http://www.w3.org/2000/svg"
 width="200.000000pt" height="200.000000pt" viewBox="0 0 200.000000 200.000000"
 preserveAspectRatio="xMidYMid meet">
<metadata>
Created by potrace 1.14, written by Peter Selinger 2001-2017
</metadata>
<g transform="translate(0.000000,200.000000) scale(0.100000,-0.100000)"
fill="#000000" stroke="none">
<path d="M940 1985 c0 -8 -7 -15 -15 -15 -8 0 -15 -7 -15 -15 0 -12 -14 -15
-65 -15 -51 0 -65 -3 -65 -15 0 -11 -12 -15 -45 -15 -33 0 -45 4 -45 15 0 8
-7 15 -15 15 -8 0 -15 -7 -15 -15 0 -12 -14 -15 -65 -15 l-65 0 0 -35 c0 -24
-5 -35 -15 -35 -10 0 -15 -10 -15 -30 0 -20 -5 -30 -15 -30 -8 0 -15 -7 -15
-15 0 -10 -10 -15 -30 -15 -20 0 -30 -5 -30 -15 0 -8 -7 -15 -15 -15 -8 0 -15
-7 -15 -15 0 -10 -11 -15 -35 -15 -24 0 -35 -5 -35 -15 0 -10 -10 -15 -30 -15
-23 0 -30 -4 -30 -20 0 -16 -6 -20 -32 -18 -24 2 -33 -2 -36 -14 -2 -13 3 -18
17 -18 12 0 21 -6 21 -15 0 -8 -7 -15 -15 -15 -8 0 -15 -7 -15 -15 0 -8 -9
-15 -20 -15 -11 0 -20 -7 -20 -15 0 -8 -7 -15 -16 -15 -12 0 -14 -8 -8 -45 6
-41 5 -45 -15 -45 -17 0 -21 -6 -21 -35 0 -28 4 -35 20 -35 22 0 27 -15 8 -26
-6 -4 -16 0 -23 9 -15 21 -20 21 -45 0 -26 -22 -30 -133 -5 -133 8 0 15 7 15
15 0 8 7 15 15 15 8 0 15 -7 15 -15 0 -8 6 -15 13 -15 21 0 57 -47 57 -74 0
-22 4 -26 30 -26 29 0 30 -2 30 -45 0 -33 4 -45 15 -45 8 0 15 -7 15 -15 0
-10 10 -15 30 -15 20 0 30 -5 30 -15 0 -10 10 -15 30 -15 16 0 33 -6 37 -14 4
-8 19 -16 33 -18 19 -2 26 -10 28 -31 2 -18 -2 -29 -12 -33 -10 -4 -16 -18
-16 -35 0 -19 -5 -29 -15 -29 -12 0 -15 -17 -15 -91 0 -82 -2 -91 -20 -96 -11
-3 -20 -12 -20 -19 0 -8 -7 -14 -15 -14 -8 0 -15 -7 -15 -15 0 -8 7 -15 15
-15 8 0 15 -7 15 -15 0 -8 -7 -15 -15 -15 -12 0 -15 -15 -15 -75 0 -58 4 -77
15 -81 20 -8 20 -64 0 -64 -8 0 -15 7 -15 15 0 8 -7 15 -15 15 -8 0 -15 7 -15
15 0 8 -7 15 -15 15 -10 0 -15 11 -15 35 0 24 -5 35 -15 35 -10 0 -15 10 -15
30 0 20 -5 30 -15 30 -8 0 -15 7 -15 15 0 8 -7 15 -15 15 -11 0 -15 12 -15 44
0 35 -4 45 -20 49 -16 4 -20 14 -20 51 0 34 -4 46 -15 46 -8 0 -15 7 -15 15 0
8 -7 15 -15 15 -11 0 -15 12 -15 45 0 33 -4 45 -15 45 -22 0 -22 -118 0 -126
9 -4 15 -19 15 -35 0 -19 5 -29 15 -29 11 0 15 -12 15 -45 0 -33 4 -45 15 -45
8 0 15 -7 15 -15 0 -8 7 -15 15 -15 10 0 15 -10 15 -30 0 -18 6 -33 15 -36 8
-4 15 -17 15 -31 0 -16 7 -27 20 -30 11 -3 20 -12 20 -19 0 -8 7 -14 15 -14 8
0 15 -7 15 -15 0 -8 7 -15 15 -15 8 0 15 -7 15 -15 0 -8 7 -15 15 -15 8 0 15
-7 15 -15 0 -8 7 -15 15 -15 8 0 15 -7 15 -15 0 -8 7 -15 15 -15 8 0 15 7 15
15 0 8 -7 15 -15 15 -8 0 -15 7 -15 15 0 8 9 15 20 15 11 0 20 -7 20 -15 0 -8
7 -15 15 -15 8 0 15 -7 15 -15 0 -8 7 -15 15 -15 11 0 14 -9 13 -33 -3 -29 0
-32 30 -35 20 -2 32 -9 32 -18 0 -9 11 -14 30 -14 20 0 30 -5 30 -15 0 -10 10
-15 30 -15 20 0 30 -5 30 -15 0 -11 12 -15 50 -15 38 0 50 -4 50 -15 0 -13 21
-15 125 -15 104 0 125 2 125 15 0 13 26 15 170 15 144 0 170 2 170 15 0 8 7
15 15 15 8 0 15 -7 15 -15 0 -8 9 -15 20 -15 11 0 20 7 20 15 0 10 10 15 30
15 20 0 30 5 30 15 0 10 10 15 30 15 20 0 30 5 30 15 0 10 10 15 26 15 27 0
74 36 74 58 0 7 13 12 30 12 20 0 30 5 30 15 0 8 7 15 15 15 8 0 15 7 15 15 0
8 7 15 15 15 8 0 15 7 15 15 0 8 7 15 15 15 8 0 15 7 15 15 0 8 7 15 15 15 10
0 15 10 15 30 0 17 5 30 11 30 22 0 59 45 59 73 0 17 5 27 15 27 8 0 15 7 15
15 0 8 7 15 15 15 11 0 15 12 15 45 0 33 4 45 15 45 11 0 15 12 15 50 0 38 4
50 15 50 12 0 15 15 15 75 0 60 3 75 15 75 13 0 15 21 15 130 0 109 -2 130
-15 130 -10 0 -15 10 -15 30 0 20 -5 30 -15 30 -10 0 -15 10 -15 30 0 20 5 30
15 30 8 0 15 7 15 15 0 10 -10 15 -30 15 -27 0 -30 3 -30 30 0 17 -5 30 -11
30 -22 0 -59 45 -59 73 0 25 -3 27 -45 27 -33 0 -45 4 -45 15 0 10 -10 15 -30
15 -20 0 -30 5 -30 15 0 8 -7 15 -15 15 -8 0 -15 -7 -15 -15 0 -8 7 -15 15
-15 8 0 15 -7 15 -15 0 -8 7 -15 15 -15 8 0 15 -7 15 -15 0 -10 10 -15 30 -15
l30 0 0 -65 c0 -51 -3 -65 -15 -65 -8 0 -15 -7 -15 -15 0 -8 -7 -15 -15 -15
-8 0 -15 -7 -15 -15 0 -10 -10 -15 -30 -15 -20 0 -30 -5 -30 -15 0 -11 12 -15
45 -15 l45 0 0 -65 c0 -51 -3 -65 -15 -65 -8 0 -15 -7 -15 -15 0 -8 -7 -15
-15 -15 -10 0 -15 -10 -15 -30 0 -20 -5 -30 -15 -30 -8 0 -15 -6 -15 -14 0 -7
-9 -16 -20 -19 -18 -5 -20 -14 -20 -111 0 -88 -3 -106 -15 -106 -8 0 -15 -7
-15 -15 0 -8 -7 -15 -15 -15 -8 0 -15 -7 -15 -15 0 -8 -7 -15 -15 -15 -11 0
-15 -12 -15 -50 0 -49 -1 -50 -30 -50 -27 0 -30 -3 -30 -30 0 -20 -5 -30 -15
-30 -8 0 -15 -7 -15 -15 0 -8 -7 -15 -15 -15 -8 0 -15 -7 -15 -15 0 -12 -14
-15 -65 -15 -51 0 -65 3 -65 15 0 8 -7 15 -15 15 -12 0 -15 16 -15 80 0 64 -3
80 -15 80 -12 0 -15 15 -15 75 0 60 3 75 15 75 8 0 15 7 15 15 0 8 -7 15 -15
15 -11 0 -15 12 -15 50 0 38 -4 50 -15 50 -8 0 -15 7 -15 15 0 8 -7 15 -15 15
-11 0 -15 12 -15 45 0 33 4 45 15 45 8 0 15 7 15 15 0 8 -7 15 -15 15 -8 0
-15 7 -15 15 0 10 -10 15 -30 15 -18 0 -33 6 -36 15 -9 21 -94 21 -94 0 0 -12
-16 -15 -87 -15 -79 0 -90 3 -110 24 -13 13 -23 29 -23 35 0 6 -7 11 -15 11
-8 0 -15 7 -15 15 0 8 -7 15 -15 15 -11 0 -15 12 -15 45 0 33 4 45 15 45 10 0
15 10 15 30 0 20 -5 30 -15 30 -8 0 -15 9 -15 20 0 11 7 20 15 20 10 0 15 10
15 30 0 20 5 30 15 30 8 0 15 7 15 15 0 10 10 15 30 15 20 0 30 5 30 15 0 8 7
15 15 15 10 0 15 10 15 29 0 20 6 30 20 34 28 7 27 53 -1 60 -16 4 -20 12 -17
34 3 26 7 28 51 31 45 3 47 5 47 33 0 19 5 29 15 29 8 0 15 7 15 15 0 10 10
15 30 15 20 0 30 5 30 15 0 8 7 15 15 15 8 0 15 6 15 14 0 8 -7 16 -15 20 -22
8 -18 45 8 72 19 21 31 24 95 24 57 0 72 3 72 15 0 11 -12 15 -45 15 -33 0
-45 4 -45 15 0 10 -11 15 -35 15 -24 0 -35 -5 -35 -15 0 -10 -10 -15 -30 -15
-20 0 -30 5 -30 15 0 11 -12 15 -45 15 -33 0 -45 -4 -45 -15z m-252 -92 c-5
-25 -28 -28 -28 -4 0 12 6 21 16 21 9 0 14 -7 12 -17z m312 -83 c0 -29 -2 -30
-45 -30 -33 0 -45 4 -45 15 0 8 7 15 15 15 8 0 15 7 15 15 0 10 10 15 30 15
27 0 30 -3 30 -30z m750 -1060 c0 -20 -5 -30 -15 -30 -10 0 -15 -10 -15 -30 0
-20 -5 -30 -15 -30 -10 0 -15 -10 -15 -27 0 -31 -43 -79 -60 -68 -17 10 -11
25 10 25 18 0 20 7 20 65 0 51 3 65 15 65 8 0 15 7 15 15 0 8 7 15 15 15 8 0
15 7 15 15 0 8 7 15 15 15 10 0 15 -10 15 -30z"/>
<path d="M1160 1861 c0 -39 4 -51 16 -51 12 0 14 10 12 47 -4 66 -28 70 -28 4z"/>
<path d="M1590 1801 c0 -15 6 -21 21 -21 14 0 19 5 17 17 -5 26 -38 29 -38 4z"/>
<path d="M1090 1705 c0 -10 -10 -15 -30 -15 -20 0 -30 -5 -30 -15 0 -8 -7 -15
-15 -15 -8 0 -15 -9 -15 -20 0 -11 -7 -20 -15 -20 -8 0 -15 -7 -15 -15 0 -8
-7 -15 -15 -15 -8 0 -15 -7 -15 -15 0 -8 7 -15 15 -15 8 0 15 7 15 15 0 12 17
15 95 15 78 0 95 -3 95 -15 0 -8 7 -15 15 -15 8 0 15 -7 15 -15 0 -10 10 -15
30 -15 20 0 30 -5 30 -15 0 -8 7 -15 15 -15 8 0 15 7 15 15 0 12 19 15 110 15
91 0 110 3 110 15 0 8 -7 15 -15 15 -8 0 -15 7 -15 15 0 11 -11 15 -41 15 -42
0 -88 30 -89 58 0 28 -25 4 -28 -26 -3 -32 -32 -47 -32 -17 0 10 -10 15 -30
15 -23 0 -30 4 -30 20 0 11 7 20 15 20 8 0 15 7 15 15 0 10 -10 15 -30 15 -20
0 -30 -5 -30 -15 0 -8 -6 -15 -14 -15 -8 0 -16 7 -20 15 -3 8 -12 15 -21 15
-8 0 -15 7 -15 15 0 8 -7 15 -15 15 -8 0 -15 -7 -15 -15z"/>
<path d="M1500 1455 c0 -8 7 -15 15 -15 10 0 15 -10 15 -30 0 -20 5 -30 15
-30 8 0 15 -7 15 -15 0 -9 7 -18 15 -21 9 -4 15 -19 15 -35 0 -19 5 -29 15
-29 8 0 15 -7 15 -15 0 -8 9 -15 20 -15 16 0 20 7 20 30 0 20 -5 30 -15 30 -9
0 -18 7 -21 15 -4 8 -12 15 -20 15 -9 0 -14 12 -14 35 0 24 -5 35 -15 35 -8 0
-15 7 -15 15 0 8 -7 15 -15 15 -8 0 -15 7 -15 15 0 8 -7 15 -15 15 -8 0 -15
-7 -15 -15z"/>
<path d="M0 1095 c0 -51 3 -65 15 -65 12 0 15 14 15 65 0 51 -3 65 -15 65 -12
0 -15 -14 -15 -65z"/>
<path d="M0 875 c0 -24 5 -35 15 -35 10 0 15 11 15 35 0 24 -5 35 -15 35 -10
0 -15 -11 -15 -35z"/>
</g>
</svg>
